<svg width="5" height="9" viewBox="0 0 5 9" fill="none" xmlns="http://www.w3.org/2000/svg">
<path d="M5 4.18944C4.99545 3.94809 4.91348 3.75683 4.71767 3.56557L1.28871 0.214026C1.14299 0.0728597 0.974499 0 0.765027 0C0.346084 0 0 0.34153 0 0.75592C0 0.965392 0.0865209 1.15665 0.245902 1.31603L3.21494 4.18488L0.245902 7.06284C0.0865209 7.21767 0 7.40893 0 7.62295C0 8.03734 0.346084 8.37887 0.765027 8.37887C0.969945 8.37887 1.14299 8.31056 1.28871 8.16485L4.71767 4.8133C4.91348 4.62204 5 4.42623 5 4.18944Z" fill="#EBEBF5" fill-opacity="0.6"/>
</svg>
