<svg width="8" height="13" viewBox="0 0 8 13" fill="none" xmlns="http://www.w3.org/2000/svg">
<path d="M7.57429 6.49638C7.57429 6.19978 7.46578 5.95381 7.23428 5.72231L1.66388 0.274903C1.47579 0.0868114 1.25153 0 0.983862 0C0.441291 0 0 0.426822 0 0.969393C0 1.23706 0.115748 1.48303 0.311074 1.67835L5.25932 6.48915L0.311074 11.3144C0.115748 11.5097 0 11.7485 0 12.0234C0 12.5659 0.441291 13 0.983862 13C1.25153 13 1.47579 12.906 1.66388 12.7179L7.23428 7.27045C7.47301 7.03895 7.57429 6.79299 7.57429 6.49638Z" fill="#EBEBF5" fill-opacity="0.3"/>
</svg>
